<svg xmlns="http://www.w3.org/2000/svg" viewBox="0 0 800 480" font-family="Inter, system-ui, sans-serif">
  <defs>
    <linearGradient id="bgRed" x1="0" y1="0" x2="1" y2="0">
      <stop offset="0%" stop-color="#0f172a"/>
      <stop offset="100%" stop-color="#1e293b"/>
    </linearGradient>
  </defs>
  <rect width="800" height="480" fill="url(#bgRed)"/>
  <text x="400" y="40" font-size="22" font-weight="700" fill="#f1f5f9" text-anchor="middle">Notifications de violations de données à la CNIL</text>
  <text x="400" y="64" font-size="13" fill="#94a3b8" text-anchor="middle">Source : Rapport annuel CNIL 2024 — bilan contentieux 2024</text>

  <line x1="100" y1="400" x2="700" y2="400" stroke="#475569" stroke-width="1.5"/>
  <line x1="100" y1="400" x2="100" y2="110" stroke="#475569" stroke-width="1.5"/>

  <g font-size="11" fill="#94a3b8" text-anchor="end">
    <text x="92" y="404">0</text>
    <text x="92" y="346">2 000</text>
    <text x="92" y="288">4 000</text>
    <text x="92" y="230">6 000</text>
  </g>
  <g stroke="#334155" stroke-width="1" stroke-dasharray="4 4">
    <line x1="100" y1="346" x2="700" y2="346"/>
    <line x1="100" y1="288" x2="700" y2="288"/>
    <line x1="100" y1="230" x2="700" y2="230"/>
  </g>

  <g font-size="13" fill="#cbd5e1" text-anchor="middle" font-weight="600">
    <text x="200" y="430">2021</text>
    <text x="350" y="430">2022</text>
    <text x="500" y="430">2023</text>
    <text x="650" y="430">2024</text>
  </g>

  <g>
    <rect x="160" y="319" width="80" height="81" fill="#64748b" rx="3"/>
    <text x="200" y="312" font-size="14" font-weight="700" fill="#cbd5e1" text-anchor="middle">2 800</text>

    <rect x="310" y="280" width="80" height="120" fill="#64748b" rx="3"/>
    <text x="350" y="273" font-size="14" font-weight="700" fill="#cbd5e1" text-anchor="middle">4 159</text>

    <rect x="460" y="264" width="80" height="136" fill="#64748b" rx="3"/>
    <text x="500" y="257" font-size="14" font-weight="700" fill="#cbd5e1" text-anchor="middle">4 692</text>

    <rect x="610" y="237" width="80" height="163" fill="#ef4444" rx="3"/>
    <text x="650" y="230" font-size="18" font-weight="700" fill="#fca5a5" text-anchor="middle">5 629</text>
  </g>

  <g transform="translate(400, 455)" text-anchor="middle">
    <text font-size="13" fill="#fca5a5" font-weight="700">+20 % en un an · violations &gt; 1 M personnes ont doublé en 2024</text>
  </g>
</svg>
